<svg xmlns="http://www.w3.org/2000/svg" version="1.1" xmlns:xlink="http://www.w3.org/1999/xlink" xmlns:svgjs="http://svgjs.dev/svgjs" width="1000" height="1000" viewBox="0 0 1000 1000"><rect width="1000" height="1000" fill="#ffffff"></rect><g transform="matrix(0.7,0,0,0.7,150,106.25)"><svg viewBox="0 0 320 360" data-background-color="#ffffff" preserveAspectRatio="xMidYMid meet" height="1125" width="1000" xmlns="http://www.w3.org/2000/svg" xmlns:xlink="http://www.w3.org/1999/xlink"><g id="tight-bounds" transform="matrix(1,0,0,1,0,0)"><svg viewBox="0 0 320 360" height="360" width="320"><g><svg></svg></g><g><svg viewBox="0 0 320 360" height="360" width="320"><g><path xmlns="http://www.w3.org/2000/svg" d="M165.217 303.356c-1.404-1.755-2.809-0.702-2.808-1.755-8.426 2.106-24.223-3.511-30.894-2.809 1.404-2.106-2.106-1.755-2.106-3.159-1.404 2.106-2.809 0-4.915 0.702-2.106-5.266-10.532-1.404-11.585-8.075-4.915 0-6.67-2.809-11.586-5.617 0.351-0.351 0.702-0.351 1.054-0.702-2.457-0.351-2.457-1.755-4.564-1.755l0.702-1.405c-3.862-0.702-5.266-6.67-10.883-8.776-1.755-0.351-5.617-6.319-7.723-7.724-1.053-0.702-2.809-0.702-0.352-1.053-0.351-0.351-0.351-1.053 0-1.404-2.457-0.702-2.809-2.809-5.968-3.862-0.351-1.053 0.702-1.755 0-2.457-0.702-0.351-1.755 0.351-2.457 0-0.351 6.319 6.67 7.021 8.777 12.287-0.702-0.702-1.755-2.809-2.458-1.404-0.351 1.053 2.809 4.915 2.809 2.808-1.053 0.702-1.404-1.053-0.703-1.404 1.053 1.755 3.16 1.404 3.16 2.809-1.053 1.053-2.457-1.053-2.106 0.702 3.16 1.755 2.809 3.511 4.563 5.968-1.404-1.755-1.755 1.404-3.159 0-0.351-5.266-6.319-4.213-6.319-9.479-0.702-1.755-1.404-0.351-2.458-1.053 1.404-1.404-4.213-6.319-4.213-4.564-1.755-2.106-0.702-2.809-1.053-4.213-1.404-0.351-0.351 1.404-1.404 0.351 1.404-2.457-1.755-5.617-3.862-8.074l1.405-0.702c-2.457-1.404-2.809-4.213-4.564-7.373-2.106 3.16 4.213 10.181 3.159 11.585 0 0.351 2.457 3.16 3.16 4.564 2.809 4.915 4.915 10.883 8.777 13.692-0.702-0.351-0.351-2.457 0.702-1.404 0 1.053-0.702 2.106-0.702 3.159 2.106 2.106 3.862 3.862 5.968 5.968-4.564-2.809-9.128-5.617-12.288-9.83 1.755-0.351 3.511 2.809 4.915 2.458-3.511-2.809-2.457-3.862-3.861-7.372-1.404-1.053 0.351 1.404-1.054 1.755-4.564-4.213-8.075-6.67-10.181-10.532 0.351-0.351 0.702-0.702 0.703-1.404-0.351-0.351-0.351-0.351-0.703-0.702 2.106 2.106 2.809 3.862 5.266 4.212-1.053-1.053 0-1.404-1.404-2.457-0.702-1.404-1.755 0.702-2.457-0.351 0.702-1.053 0-2.457 0-3.511-0.702 0-1.404 0-1.756-1.053-0.702-0.351-1.053 0-1.404 0.702-0.351-0.351-0.351-1.053-0.702-1.404v-0.351c-0.351-0.351-0.702-1.053-1.053-1.405-2.809-7.372-4.564-17.202-8.426-23.521 1.053-4.213-0.702-12.638-1.755-14.745 1.053-1.755 0.351-9.83-0.351-11.234-1.755 0.702 0.351 4.564-1.404 5.617-1.755-7.723 1.053-16.5 0.351-23.521 0.702 0 1.404 0 1.404-0.351-1.053-1.053 0.702-3.16 0.351-5.617 1.404-3.16-3.16 4.564-3.16 7.723-0.351 0.702-1.755 0-1.404 1.756 0 2.457 0.702 7.372-0.702 10.883-0.702 0-0.702-0.702-1.404-0.351-0.351 1.755-0.702 3.862-1.053 5.617-0.351-0.702-0.702-1.755-0.703-2.107-1.755-8.777 0-18.958-0.702-26.33 1.404 0 1.404-2.106 2.458-2.808-0.351 2.809-1.053 6.319 0.702 7.021 1.404-13.692 4.213-28.787 10.532-43.532 4.564-10.883 11.234-21.766 19.308-30.543 0.702 1.053-0.351 3.511 0 4.564 7.021-7.372 11.585-16.149 19.309-21.064 0.351 1.755-3.16 3.16-3.16 4.564 3.16-3.16 4.213-2.106 7.724-3.159 1.053-1.404-1.404 0-1.756-1.405 2.106-1.404 3.511-3.16 4.915-4.212 0 0.351-0.351 0.351-0.351 0.702 3.862-1.053 4.213-3.16 7.022-3.862-0.351-0.351-1.053-0.702-2.107-0.351 0.702-0.351 1.755-1.053 2.809-1.404-0.351 0-0.351 0.351-0.702 0.351 2.106-1.053 0.351 0.351 0.351 1.053 0.351 0 0.702-0.351 0.702-0.351-2.106 1.404-3.511 2.106-4.213 4.564 1.053-0.702 1.404 0 2.809-1.054 1.404-0.702-0.351-1.755 0.702-2.457 1.053 0.702 2.457 0.351 3.51 0.351 0-0.702 0.351-1.404 1.054-1.755 0.351-0.702 0-1.053-0.352-1.053 0.351-0.351 0.702-0.351 1.405-0.703 0 0 0.351 0 0.351 0.351 5.968-2.809 12.638-5.266 18.957-7.372 3.862-0.351 8.777-0.351 10.883-2.808-0.702 0-1.404 0.351-1.755 0 0.351 0 1.053-0.351 1.404-0.351 0.702 0.702 1.755 0 0.702 1.404 0.351 0 0.351 0 0.703-0.351 0 0.351 0 0.351 0.351 0.702 0.351 0 0.702-0.351 1.053-1.053 0.351 0 0.702 0 1.053-0.351l-0.351 0.351c2.809-0.702 5.266-0.351 9.128-1.054 0-0.351 0-0.702 0-1.053 0.702 0 1.053-0.351 1.755-0.351v0.351c1.404-0.702 2.809 0.702 2.808 0 0.351 0 0.351 0 0.703 0 0 0.702-0.351 1.053-0.351 1.405 1.755 0 2.809 0 3.51-1.054-0.351-0.351-0.702-0.351-1.053-0.351 0.702 0 1.404-0.351 2.106-0.702 1.053 0.351 1.404 0.702 1.405 2.107 1.755-3.16 7.372 0.702 9.829 0 1.053 0 0.702-1.404 1.405-2.107 0.351 0 0.702 0 1.053 0 1.755 1.404 4.213 2.809 7.372 3.16-2.809-0.702 0.351-1.053 0.702-1.405-0.702 0-0.702-0.351-0.702-0.702 1.053 0 2.106 0.351 3.16 0.351 0 0.702 0.351 1.053 1.053 1.054 0.702 0 0.702-0.351 0.702-1.054 1.053 0 1.755 0 2.809 0.351-0.351 1.404 1.755 1.755 2.457 2.809-2.809-0.702-5.968-1.755-7.021 0 11.234 2.457 23.521 5.968 35.457 11.936 0 0 0 0 0 0.351h0.352c2.106 1.053 4.213 2.106 6.319 3.16 1.404 0.702 2.457 1.404 3.861 2.457 0 0.351 0 0.702 0.703 0.702h0.351c1.404 1.053 2.809 1.755 4.212 2.809 1.404 2.106 2.809 4.915 5.266 4.213 5.266 8.075 10.883 11.234 15.447 19.659 0.351-1.404 1.404 3.16 3.16 3.511-2.809-0.351 1.755 1.755-1.053 1.404 2.457 2.457 3.16 3.511 3.51 6.319-0.702-1.404-1.053-1.755-1.404-0.351-0.351 2.106 2.457-0.351 3.511 1.756-2.106 0-1.404 1.404-1.054 3.159 1.053-1.053 0.702-2.106 1.756-1.755 1.404 1.404-0.702 1.755-0.351 2.809 1.053-1.404 1.404-0.702 2.808 0-1.755 0.351 1.053 2.809-1.053 1.755 1.404 1.755 1.755 2.809 1.053 4.564-1.404-2.106-0.351-3.511-2.457-3.16 4.213 3.511 2.106 11.585 7.021 12.287-3.16 0.702 0 2.106-1.755 2.458 2.106 0.702 1.053 3.511 3.51 4.213-0.351 1.755-1.053 2.809-1.404 4.563 1.053 1.404 1.404 4.213 3.16 4.564-1.053 1.053-0.351 3.862-1.404 4.915 1.404-0.702 2.106-0.702 3.159 0.702-1.755 1.404-0.351 2.809-1.404 3.16 3.16 8.075-0.702 24.575 1.053 30.894-2.106-1.053-1.404 2.457-2.808 2.457 2.457 1.053 0.351 2.809 1.404 4.564-4.915 2.809 0 10.532-6.67 12.287 0.702 4.915-2.106 7.021-4.213 12.288-0.351-0.351-0.351-0.702-0.702-1.054-0.351 2.457-1.755 2.809-1.054 4.915l-1.404-0.702c0 3.862-5.968 5.968-7.372 11.936-0.351 1.755-5.617 6.319-7.022 8.777-0.702 1.053-0.351 2.809-1.053 0.351-0.351 0.351-1.053 0.351-1.404 0.351-0.351 2.457-2.457 3.16-3.16 6.319-0.702 0.351-1.755-0.702-2.457 0.351 0 0.702 0.702 1.755 0.351 2.458 6.319-0.351 6.319-7.723 11.234-10.181-0.351 1.053-2.457 2.106-1.053 2.808 1.053 0 4.213-3.511 2.457-3.159 1.053 0.702-1.053 1.404-1.404 1.053 1.755-1.404 1.053-3.16 2.458-3.511 1.053 0.702-1.053 2.457 1.053 2.107 1.404-3.16 3.16-3.511 5.266-5.266-1.404 1.404 1.755 1.755 0.351 3.159-5.266 1.053-3.511 7.021-8.777 7.724-1.404 1.053-0.351 1.404-0.702 2.457-1.755-1.053-5.617 4.915-4.213 4.564-1.755 1.755-2.809 1.053-4.212 1.404-0.351 1.404 1.404 0.351 0.702 1.405-2.457-1.053-5.617 2.457-7.724 4.915l-1.053-1.054c-1.053 2.809-3.862 3.16-7.021 5.266 3.511 1.755 9.479-5.617 11.234-4.564 0.351 0 3.16-2.809 4.213-3.861 4.564-3.511 10.181-6.319 12.287-10.181-0.351 0.702-2.457 0.702-1.404-0.351 1.053-0.351 2.106 0.351 3.159 0.351 5.617-7.723 12.638-14.043 17.905-23.17 0.351-0.351 0.702-1.053 1.053-1.756-0.702 2.106-1.755 3.862-2.458 5.968-5.617 3.862-7.723 15.096-14.393 16.851 0.351 3.862-3.16 4.915-4.915 9.479-1.053 1.404-1.755-1.053-2.809 0.702 1.053 4.915-8.777 4.564-8.425 9.128-0.702 0.351-1.755 0.702-2.458 1.404h-0.351c-0.351 0.351-0.351 0.351-0.702 0.702-1.755 1.053-3.16 2.106-4.564 3.16-4.915 2.809-11.585 4.915-16.851 7.723v-0.351c-1.404 0.702-3.16 0.351-2.809 1.756-1.053 0.702-2.106 1.404-3.159 2.106-0.351 0-0.351 0-0.702 0 0 0-0.351-0.351-0.702-0.351-0.702 0-0.702 0-1.054 0.351-4.564 0.351-10.532 2.457-12.287 3.862-1.755-1.053-9.83 0.702-11.234 1.404 0.702 1.053 2.809 0 4.564 0-1.053 0.351-2.106 0.702-2.458 1.404-0.351 0-0.351 0-0.702 0-0.351-1.053-1.404 0-1.755-0.351h0.351c-0.351-1.404-1.404-2.106-3.16-1.755 0 0.702 0 1.053-0.351 1.755 0.702 0 2.809-1.053 2.809 0-0.351 0-0.351 0.351 0 0.351-0.702 0.702-1.755 0.702-2.458 1.054-1.404 0-3.16 0-4.563 0-0.351-0.351-0.702-0.351-1.405-0.703-0.351 0.351-1.053 0.351-1.404 0.703-2.106 0-4.564 0.351-6.319 0.702 0-0.702 0-1.404-0.702-1.405-1.053 1.404-3.16-0.351-5.617 0.352-2.457-0.702 1.404 1.053 4.915 1.755-0.351 0.351-0.702 0.702-1.756 1.053M116.068 308.271c-4.915-4.564-15.096-6.67-16.851-10.181-2.809-0.351-7.021-5.617-10.532-6.319 1.755 0 0.351-1.053 0-1.755-0.702 0.702-1.404 1.053-2.106 1.053 0-2.809-2.809-4.564-5.266-6.319 1.755 1.053 3.16 1.755 5.266 2.106 0-0.702 0-1.404 0.702-1.404 2.457 2.457 5.266 4.915 8.425 7.372 4.213 3.862 25.979 13.692 29.841 15.447 0 0-0.702 1.404-0.351 1.404 1.755 1.053 3.16-1.053 3.511 1.404-5.617 0.702-7.723-3.16-12.639-2.808M277.909 226.824v0.351 0c-0.351 0 0-0.351 0-0.351M136.079 64.281c-0.351 0.351-0.702 0.351-0.702 0.351 0-0.351 0.351-0.351 0.702-0.351M129.409 66.036c0 0.351 0 0.351 0 0 0 0.351 0 0.351 0 0 0 0.351 0 0 0 0M106.238 73.408v0c0.351-0.351 0.351-0.351 0.703-0.351-0.351 0-0.702 0.351-0.703 0.351M162.409 61.823c-0.702 0-1.053 0-1.404-0.351 0.351 0 0.702 0 1.053 0h0.351c0 0 0 0 0 0.351M168.728 62.525c-0.351-0.351-1.404-0.702-2.457-0.702 0-0.351 0.351-0.702 0.351-0.702 0.351 0 0.702 0 1.053 0 0 0 0.351 0 0.351 0.351 0 0 0 0 0-0.351 0.351 0 0.351 0 0.702 0 0.351 0.702 0.702 1.053 0 1.404M180.313 63.579c-1.755 0.351-2.809-0.351-4.564-1.405 1.053 0 2.457 0.351 3.511 0.702 0.351 0 0.702 0.351 1.053 0.703M305.292 113.43c-0.702 0.351-1.053 0.351-1.755-1.053-5.617-11.936-15.798-29.138-30.543-43.532-14.394-14.745-33.702-26.681-51.255-33.001 1.053 0.351 2.457 1.053 1.755 1.756-15.447-5.968-30.192-9.479-44.234-10.883-37.915-5.968-77.585 2.106-108.128 21.766 0.351 0.702 0.351 1.053-0.702 1.755-11.234 7.021-27.032 19.309-39.671 35.458-12.638 16.149-22.468 36.511-26.681 54.766 0.351-1.053 0.702-2.809 1.405-2.107-9.128 36.16-6.67 67.053 5.968 93.735 0.702-0.702-1.755-4.213 0.351-3.862 1.404 3.862 3.16 8.075 5.266 11.936 2.457 5.617 5.266 12.989 9.128 14.745-9.83-19.309-16.5-41.426-17.203-61.085 1.404 2.809 1.053 8.777 3.16 11.234 0.702-13.34-2.457-31.245 2.106-43.883-1.053 6.67-1.755 15.798-1.053 24.925 0 6.67 3.16 25.277 5.266 27.032-0.351-0.351-0.351-2.106 0-2.106 1.053 2.106-1.404 3.16 0.351 3.511 0-0.702 0.351-0.702 0.702-0.703 3.511 7.723 8.075 19.66 11.585 25.628 4.213 7.723 9.83 14.745 16.149 21.064 0 0.351 0.351 0.351 0.352 0.702 0.702 1.755 3.16 3.862 3.861 5.266 0.351 0.702-0.351 1.755 0 2.458 5.266 9.83 12.989 19.66 22.468 27.383 5.968 7.021 15.447 14.394 27.032 20.713 11.234 5.968 24.223 10.883 36.16 13.691 8.426 2.106 18.606 2.457 24.926 3.862 8.426 1.755 23.17-0.702 30.542-2.107 44.234-6.67 88.117-36.862 110.235-80.393 22.819-43.883 22.117-97.596 2.457-138.671" fill="#0063db" fill-rule="nonzero" stroke="none" stroke-width="1" stroke-linecap="butt" stroke-linejoin="miter" stroke-miterlimit="10" stroke-dasharray="" stroke-dashoffset="0" font-family="none" font-weight="none" font-size="none" text-anchor="none" style="mix-blend-mode: normal" data-fill-palette-color="tertiary"></path></g><g transform="matrix(1,0,0,1,80,162.02504884063592)"><svg viewBox="0 0 160 35.94990231872819" height="35.94990231872819" width="160"><g><svg viewBox="0 0 160 35.94990231872819" height="35.94990231872819" width="160"><g><svg viewBox="0 0 160 35.94990231872819" height="35.94990231872819" width="160"><g transform="matrix(1,0,0,1,0,22.218481871526436)"><svg viewBox="0 0 160 13.731420447201758" height="13.731420447201758" width="160"><g id="textblocktransform"><svg viewBox="0 0 160 13.731420447201758" height="13.731420447201758" width="160" id="textblock"><g><svg viewBox="0 0 160 13.731420447201758" height="13.731420447201758" width="160"><g transform="matrix(1,0,0,1,0,0)"><svg width="160" viewBox="-1.440000057220459 -31.860000610351562 377.75 32.42000198364258" height="13.731420447201758" data-palette-color="#0063db"><path d="M24.24 0L18.95 0 16.65-7.59 6.1-7.59 3.86 0-1.44 0 8.5-31.86 14.31-31.86 24.24 0ZM11.4-25.2L7.45-12.06 15.31-12.06 11.4-25.2ZM28.49 0L28.49-31.86 33.54-31.86 33.54-20.7Q34.98-22 36.46-22.64 37.94-23.29 39.84-23.29L39.84-23.29Q42.04-23.29 43.92-22.4 45.8-21.51 47.14-19.93 48.48-18.36 49.27-16.15 50.05-13.94 50.05-11.35L50.05-11.35Q50.05-8.74 49.27-6.54 48.48-4.35 47.14-2.77 45.8-1.2 43.92-0.32 42.04 0.56 39.84 0.56L39.84 0.56Q37.94 0.56 36.46-0.12 34.98-0.81 33.54-2.1L33.54-2.1 33.54 0 28.49 0ZM33.54-16.7L33.54-6.05Q34.45-5.05 35.85-4.53 37.25-4 38.55-4L38.55-4Q41.4-4 43.2-6.03 44.99-8.06 44.99-11.35L44.99-11.35Q44.99-14.65 43.2-16.7 41.4-18.75 38.55-18.75L38.55-18.75Q37.25-18.75 35.85-18.23 34.45-17.7 33.54-16.7L33.54-16.7ZM78.29-9.45L59.22-9.45Q59.59-7.1 61.46-5.55 63.33-4 66.47-4L66.47-4Q68.94-4 70.76-4.77 72.58-5.54 73.9-6.81L73.9-6.81 76.48-3.25Q74.29-1.05 71.83-0.24 69.38 0.56 66.47 0.56L66.47 0.56Q63.84 0.56 61.57-0.32 59.3-1.2 57.64-2.77 55.98-4.35 55.04-6.52 54.1-8.69 54.1-11.35L54.1-11.35Q54.1-13.94 54.96-16.13 55.83-18.31 57.4-19.91 58.98-21.51 61.18-22.4 63.37-23.29 66.04-23.29L66.04-23.29Q68.79-23.29 71.04-22.35 73.29-21.41 74.89-19.63 76.48-17.85 77.39-15.27 78.29-12.7 78.29-9.45L78.29-9.45ZM59.44-13.89L72.58-13.89Q72.19-16.09 70.31-17.42 68.43-18.75 66.04-18.75L66.04-18.75Q63.64-18.75 61.74-17.42 59.83-16.09 59.44-13.89L59.44-13.89ZM103.43-14.04L103.43 0 98.38 0 98.38-14.04Q98.38-16.7 97.38-17.72 96.38-18.75 94.47-18.75L94.47-18.75Q91.67-18.75 89.9-16.48 88.13-14.21 88.13-10.21L88.13-10.21 88.13 0 83.07 0 83.07-22.75 88.13-22.75 88.13-17.04Q88.88-20 90.93-21.64 92.99-23.29 95.99-23.29L95.99-23.29Q99.48-23.29 101.46-21.02 103.43-18.75 103.43-14.04L103.43-14.04ZM132.88-9.45L113.81-9.45Q114.17-7.1 116.04-5.55 117.91-4 121.06-4L121.06-4Q123.53-4 125.34-4.77 127.16-5.54 128.48-6.81L128.48-6.81 131.07-3.25Q128.87-1.05 126.42-0.24 123.96 0.56 121.06 0.56L121.06 0.56Q118.42 0.56 116.15-0.32 113.88-1.2 112.22-2.77 110.56-4.35 109.62-6.52 108.68-8.69 108.68-11.35L108.68-11.35Q108.68-13.94 109.55-16.13 110.41-18.31 111.99-19.91 113.56-21.51 115.76-22.4 117.96-23.29 120.62-23.29L120.62-23.29Q123.38-23.29 125.62-22.35 127.87-21.41 129.47-19.63 131.07-17.85 131.97-15.27 132.88-12.7 132.88-9.45L132.88-9.45ZM114.03-13.89L127.16-13.89Q126.77-16.09 124.89-17.42 123.01-18.75 120.62-18.75L120.62-18.75Q118.23-18.75 116.32-17.42 114.42-16.09 114.03-13.89L114.03-13.89ZM158.02-9.06L158.02 0 137.66 0 137.66-4.49 150.62-18.19 142.1-18.19 142.1-13.6 137.66-13.6 137.66-22.75 157.56-22.75 157.56-18.19 144.57-4.54 153.55-4.54 153.55-9.06 158.02-9.06ZM187.46-9.45L168.39-9.45Q168.76-7.1 170.63-5.55 172.49-4 175.64-4L175.64-4Q178.11-4 179.93-4.77 181.75-5.54 183.07-6.81L183.07-6.81 185.65-3.25Q183.46-1.05 181-0.24 178.55 0.56 175.64 0.56L175.64 0.56Q173.01 0.56 170.74-0.32 168.47-1.2 166.81-2.77 165.15-4.35 164.21-6.52 163.27-8.69 163.27-11.35L163.27-11.35Q163.27-13.94 164.13-16.13 165-18.31 166.57-19.91 168.15-21.51 170.35-22.4 172.54-23.29 175.2-23.29L175.2-23.29Q177.96-23.29 180.21-22.35 182.46-21.41 184.05-19.63 185.65-17.85 186.56-15.27 187.46-12.7 187.46-9.45L187.46-9.45ZM168.61-13.89L181.75-13.89Q181.36-16.09 179.48-17.42 177.6-18.75 175.2-18.75L175.2-18.75Q172.81-18.75 170.91-17.42 169-16.09 168.61-13.89L168.61-13.89ZM215.14-22.29L213.24-17.36Q212.34-17.8 211.4-18.03 210.46-18.26 209.24-18.26L209.24-18.26Q207.55-18.26 206.07-17.76 204.6-17.26 203.52-16.26 202.45-15.26 201.85-13.76 201.25-12.26 201.25-10.21L201.25-10.21 201.25-4.54 206.35-4.54 206.35 0 191.05 0 191.05-4.54 196.2-4.54 196.2-18.19 191.05-18.19 191.05-22.75 201.25-22.75 201.25-17.04Q202.5-20.46 204.93-21.88 207.36-23.29 210.7-23.29L210.7-23.29Q211.75-23.29 212.9-23.07 214.05-22.85 215.14-22.29L215.14-22.29ZM229.89-18.65L240.95 0 235.04 0 226.69-14.84 224.59-12.35 224.59 0 219.54 0 219.54-31.86 224.59-31.86 224.59-19.36 234.5-31.86 241-31.86 229.89-18.65ZM260.08-31.86L260.08-25.71 253.93-25.71 253.93-31.86 260.08-31.86ZM264.72-4.54L264.72 0 249.44 0 249.44-4.54 254.47-4.54 254.47-18.19 249.44-18.19 249.44-22.75 259.52-22.75 259.52-4.54 264.72-4.54ZM291.48-8.25L295.92-7.25Q295.53-3.66 293.1-1.55 290.67 0.56 287.04 0.56L287.04 0.56Q285.03 0.56 283.37-0.1 281.71-0.76 280.54-1.93 279.37-3.1 278.72-4.75 278.08-6.4 278.08-8.35L278.08-8.35 278.08-18.19 272.92-18.19 272.92-22.75 278.08-22.75 278.08-31.86 283.13-31.86 283.13-22.75 292.68-22.75 292.68-18.19 283.13-18.19 283.13-8.35Q283.13-6.15 284.2-5.08 285.28-4 287.04-4L287.04-4Q289.18-4 290.23-5.25 291.28-6.49 291.48-8.25L291.48-8.25ZM300.12-6.54L300.12-6.54Q300.12-8.54 301.19-10.05 302.27-11.55 304.01-12.55 305.76-13.55 308.02-14.05 310.28-14.55 312.62-14.55L312.62-14.55Q313.91-14.55 314.84-14.5 315.77-14.45 316.72-14.36L316.72-14.36 316.72-15.26Q316.72-17.04 315.34-17.92 313.96-18.8 311.72-18.8L311.72-18.8Q309.66-18.8 307.54-18.23 305.42-17.65 303.51-16.55L303.51-16.55 301.46-20.51Q303.71-21.8 306.28-22.55 308.86-23.29 311.72-23.29L311.72-23.29Q313.57-23.29 315.37-22.88 317.16-22.46 318.59-21.51 320.02-20.56 320.87-19.03 321.73-17.5 321.73-15.26L321.73-15.26 321.73 0 316.72 0 316.72-3.34Q315.52-1.49 313.19-0.46 310.86 0.56 308.18 0.56L308.18 0.56Q306.52 0.56 305.04 0.11 303.56-0.34 302.49-1.25 301.41-2.15 300.77-3.48 300.12-4.81 300.12-6.54ZM309.47-3.96L309.47-3.96Q310.96-3.96 312.26-4.33 313.57-4.71 314.57-5.38 315.57-6.05 316.15-7.01 316.72-7.96 316.72-9.11L316.72-9.11 316.72-9.96Q315.52-10.16 314.47-10.18 313.42-10.21 312.62-10.21L312.62-10.21Q308.91-10.21 307.02-9.23 305.12-8.25 305.12-6.81L305.12-6.81Q305.12-3.96 309.47-3.96ZM346.06-8.25L350.51-7.25Q350.12-3.66 347.69-1.55 345.26 0.56 341.62 0.56L341.62 0.56Q339.62 0.56 337.96-0.1 336.3-0.76 335.13-1.93 333.95-3.1 333.31-4.75 332.66-6.4 332.66-8.35L332.66-8.35 332.66-18.19 327.51-18.19 327.51-22.75 332.66-22.75 332.66-31.86 337.71-31.86 337.71-22.75 347.26-22.75 347.26-18.19 337.71-18.19 337.71-8.35Q337.71-6.15 338.79-5.08 339.86-4 341.62-4L341.62-4Q343.77-4 344.82-5.25 345.87-6.49 346.06-8.25L346.06-8.25ZM354.7-6.54L354.7-6.54Q354.7-8.54 355.78-10.05 356.85-11.55 358.6-12.55 360.34-13.55 362.6-14.05 364.86-14.55 367.2-14.55L367.2-14.55Q368.5-14.55 369.43-14.5 370.35-14.45 371.31-14.36L371.31-14.36 371.31-15.26Q371.31-17.04 369.93-17.92 368.55-18.8 366.3-18.8L366.3-18.8Q364.25-18.8 362.13-18.23 360-17.65 358.1-16.55L358.1-16.55 356.05-20.51Q358.29-21.8 360.87-22.55 363.44-23.29 366.3-23.29L366.3-23.29Q368.16-23.29 369.95-22.88 371.74-22.46 373.17-21.51 374.6-20.56 375.46-19.03 376.31-17.5 376.31-15.26L376.31-15.26 376.31 0 371.31 0 371.31-3.34Q370.11-1.49 367.78-0.46 365.45 0.56 362.76 0.56L362.76 0.56Q361.1 0.56 359.62 0.11 358.15-0.34 357.07-1.25 356-2.15 355.35-3.48 354.7-4.81 354.7-6.54ZM364.05-3.96L364.05-3.96Q365.54-3.96 366.85-4.33 368.16-4.71 369.16-5.38 370.16-6.05 370.73-7.01 371.31-7.96 371.31-9.11L371.31-9.11 371.31-9.96Q370.11-10.16 369.06-10.18 368.01-10.21 367.2-10.21L367.2-10.21Q363.49-10.21 361.6-9.23 359.71-8.25 359.71-6.81L359.71-6.81Q359.71-3.96 364.05-3.96Z" opacity="1" transform="matrix(1,0,0,1,0,0)" fill="#0063db" class="wordmark-text-0" data-fill-palette-color="primary" id="text-0"></path></svg></g></svg></g></svg></g></svg></g><g transform="matrix(1,0,0,1,68.97993622983934,0)"><svg viewBox="0 0 22.040127540321315 18.97682305803283" height="18.97682305803283" width="22.040127540321315"><g><svg xmlns="http://www.w3.org/2000/svg" xmlns:xlink="http://www.w3.org/1999/xlink" version="1.1" x="0" y="0" viewBox="0.8520021438598633 8.295343399047852 99.14799499511719 85.3676528930664" enable-background="new 0 0 100 100" xml:space="preserve" height="18.97682305803283" width="22.040127540321315" class="icon-icon-0" data-fill-palette-color="accent" id="icon-0"><path d="M92.422 47.256c0.042-0.18 0.066-0.366 0.066-0.555 0-1.759-1.923-3.183-4.296-3.183-0.857 0-1.654 0.187-2.325 0.507-1.106-0.307-2.27-0.537-3.477-0.682-1.048-1.185-2.872-1.969-4.947-1.969-2.636 0-4.868 1.265-5.617 3.009-4.149 1.408-7.342 3.932-8.726 6.997h13.774c-0.003 0.002-0.005 0.003-0.007 0.006-0.992 0.803-3.626 2.15-10.126 2.15-4 0-7.329 1.349-9.897 4.011-1.134 1.176-2.026 2.524-2.73 3.934-0.927-4.731-1.291-11.464 1.908-12.767 9.229-3.76 15.616-11.02 16.367-18.406H100c-2.484-5.501-8.046-10.083-15.315-12.812 0.268-0.471 0.416-0.976 0.416-1.501 0-2.548-3.419-4.613-7.637-4.613-0.788 0-1.548 0.072-2.263 0.206C73.846 9.29 70.513 7.92 66.84 8.386c-4.533 0.575-7.867 3.726-7.447 7.039 0.016 0.121 0.037 0.24 0.063 0.358-5.299 1.131-10.01 3.169-13.743 5.845-0.014-0.003-0.027-0.006-0.041-0.01-0.445-0.604-1.255-1.009-2.183-1.009-0.569 0-1.092 0.154-1.516 0.41-1.205-0.127-2.439-0.194-3.696-0.194-3.123 0-6.105 0.408-8.841 1.147-0.601-0.261-1.287-0.409-2.015-0.409-2.122 0-3.883 1.254-4.231 2.901-1.788 0.988-3.362 2.147-4.671 3.442-1.222-0.589-2.697-0.934-4.287-0.934-4.218 0-7.637 2.421-7.637 5.409 0 0.708 0.194 1.384 0.544 2.004-2.893 1.861-5.088 4.22-6.287 6.877h15.355c0.148 0.893 0.677 2.524 2.538 4.032 2.672 2.162 7.133 3.26 13.261 3.26 2.625 0 4.687 0.81 6.302 2.478 4.16 4.297 3.938 12.68 3.936 12.76l0.013 0.001-1.895 28.043h0.004c0 0.002-0.001 0.003-0.001 0.005 0 1.006 3.964 1.822 8.854 1.822 4.889 0 8.853-0.816 8.853-1.822 0-0.002-0.001-0.003-0.001-0.005h0.001l-1.346-21.651c0.362-2.825 1.3-6.695 3.715-9.189 1.615-1.668 3.677-2.479 6.303-2.479 6.127 0 10.588-1.096 13.259-3.26 1.76-1.424 2.33-2.959 2.511-3.877h13.243C95.062 49.846 93.914 48.448 92.422 47.256zM40.499 35.335c-1.527-1.16-3.301-2.167-5.266-2.98h4.82C40.14 33.398 40.289 34.392 40.499 35.335zM46.671 48.437c-0.568 1.612-0.906 3.462-1.012 5.522-0.792-2.259-1.979-4.53-3.758-6.374-2.568-2.662-5.897-4.012-9.896-4.012-5.521 0-8.261-0.964-9.588-1.773-0.309-0.188-0.543-0.37-0.723-0.536H43.09c0.425 0.583 0.891 1.127 1.401 1.634 1.161 1.152 2.422 1.981 3.65 2.579C47.549 46.36 47.055 47.348 46.671 48.437zM51.071 42.516c-1.246-0.431-2.644-1.15-3.859-2.356-1.852-1.84-2.951-4.458-3.282-7.804h17.267c-0.317-0.704-0.705-1.387-1.154-2.046h4.414c-0.352 1.653-1.274 3.41-2.688 5.078-2.127 2.512-5.138 4.608-8.707 6.062C52.352 41.738 51.688 42.097 51.071 42.516z" fill="#0074d9" data-fill-palette-color="accent"></path></svg></g></svg></g><g></g></svg></g></svg></g></svg></g></svg></g><defs></defs></svg><rect width="320" height="360" fill="none" stroke="none" visibility="hidden"></rect></g></svg></g></svg>